<svg xmlns="http://www.w3.org/2000/svg" viewBox="0 0 512 512" shape-rendering="crispEdges">
  <rect width="512" height="512" rx="104" fill="#17242c"/>
  <rect x="32" y="32" width="448" height="448" rx="80" fill="#f3c66b"/>
  <rect x="48" y="48" width="416" height="416" rx="64" fill="#8b542f"/>
  <rect x="64" y="64" width="384" height="384" rx="48" fill="#69c5f2"/>
  <rect x="64" y="328" width="384" height="120" fill="#427d4b"/>
  <rect x="64" y="328" width="384" height="24" fill="#80c765"/>
  <rect x="100" y="112" width="44" height="20" fill="#fff4d6"/>
  <rect x="80" y="132" width="100" height="20" fill="#fff4d6"/>
  <rect x="360" y="100" width="40" height="20" fill="#fff4d6"/>
  <rect x="340" y="120" width="100" height="20" fill="#fff4d6"/>
  <rect x="226" y="88" width="60" height="16" fill="#fff2a6"/>
  <rect x="210" y="104" width="92" height="16" fill="#fff2a6"/>
  <rect x="196" y="208" width="120" height="32" fill="#fff4d6"/>
  <rect x="196" y="272" width="120" height="32" fill="#fff4d6"/>
  <rect x="220" y="232" width="72" height="48" fill="#f3c66b"/>
  <rect x="132" y="184" width="64" height="144" fill="#17242c"/>
  <rect x="148" y="168" width="48" height="176" fill="#f06f5f"/>
  <rect x="172" y="192" width="48" height="128" fill="#f3c66b"/>
  <rect x="316" y="184" width="64" height="144" fill="#17242c"/>
  <rect x="316" y="168" width="48" height="176" fill="#f06f5f"/>
  <rect x="292" y="192" width="48" height="128" fill="#f3c66b"/>
  <rect x="106" y="378" width="24" height="24" fill="#fff2a6"/>
  <rect x="82" y="402" width="72" height="16" fill="#fff2a6"/>
  <rect x="382" y="372" width="20" height="20" fill="#ffe3e0"/>
  <rect x="362" y="392" width="60" height="20" fill="#ffe3e0"/>
</svg>
